<svg width="90" height="25" viewBox="0 0 90 25" fill="none" xmlns="http://www.w3.org/2000/svg">
<path d="M0.589489 24.5V1.22727H6.21449V19.9318H15.8963V24.5H0.589489ZM39.8679 12.8636C39.8679 15.4242 39.3755 17.5947 38.3906 19.375C37.4058 21.1553 36.0724 22.5076 34.3906 23.4318C32.7164 24.3561 30.8376 24.8182 28.7543 24.8182C26.6634 24.8182 24.7808 24.3523 23.1065 23.4205C21.4323 22.4886 20.1027 21.1364 19.1179 19.3636C18.1406 17.5833 17.652 15.4167 17.652 12.8636C17.652 10.303 18.1406 8.13258 19.1179 6.35227C20.1027 4.57197 21.4323 3.2197 23.1065 2.29545C24.7808 1.37121 26.6634 0.90909 28.7543 0.90909C30.8376 0.90909 32.7164 1.37121 34.3906 2.29545C36.0724 3.2197 37.4058 4.57197 38.3906 6.35227C39.3755 8.13258 39.8679 10.303 39.8679 12.8636ZM34.1179 12.8636C34.1179 11.3485 33.902 10.0682 33.4702 9.02273C33.0459 7.97727 32.4323 7.1856 31.6293 6.64773C30.8338 6.10985 29.8755 5.84091 28.7543 5.84091C27.6406 5.84091 26.6823 6.10985 25.8793 6.64773C25.0762 7.1856 24.4588 7.97727 24.027 9.02273C23.6027 10.0682 23.3906 11.3485 23.3906 12.8636C23.3906 14.3788 23.6027 15.6591 24.027 16.7045C24.4588 17.75 25.0762 18.5417 25.8793 19.0795C26.6823 19.6174 27.6406 19.8864 28.7543 19.8864C29.8755 19.8864 30.8338 19.6174 31.6293 19.0795C32.4323 18.5417 33.0459 17.75 33.4702 16.7045C33.902 15.6591 34.1179 14.3788 34.1179 12.8636ZM58.4247 8.82955C58.2959 8.35227 58.1065 7.93182 57.8565 7.56818C57.6065 7.19697 57.2997 6.88258 56.9361 6.625C56.5724 6.36742 56.1558 6.17424 55.6861 6.04545C55.2164 5.90909 54.7012 5.84091 54.1406 5.84091C53.0118 5.84091 52.0346 6.11364 51.2088 6.65909C50.3906 7.20454 49.758 8 49.3111 9.04545C48.8641 10.0833 48.6406 11.3447 48.6406 12.8295C48.6406 14.322 48.8565 15.5947 49.2884 16.6477C49.7202 17.7008 50.3452 18.5038 51.1634 19.0568C51.9815 19.6098 52.974 19.8864 54.1406 19.8864C55.1709 19.8864 56.0421 19.7197 56.7543 19.3864C57.474 19.0455 58.0194 18.5644 58.3906 17.9432C58.7618 17.322 58.9474 16.5909 58.9474 15.75L59.9929 15.875H54.3338V11.7727H64.3679V14.8523C64.3679 16.9356 63.9247 18.7197 63.0384 20.2045C62.1596 21.6894 60.9474 22.8295 59.402 23.625C57.8641 24.4205 56.0952 24.8182 54.0952 24.8182C51.8755 24.8182 49.9247 24.3371 48.2429 23.375C46.5611 22.4129 45.2505 21.0417 44.3111 19.2614C43.3717 17.4735 42.902 15.3523 42.902 12.8977C42.902 10.9886 43.1861 9.29545 43.7543 7.81818C44.3224 6.33333 45.1141 5.07576 46.1293 4.04545C47.152 3.01515 48.3338 2.23485 49.6747 1.70454C51.0232 1.17424 52.474 0.90909 54.027 0.90909C55.3755 0.90909 56.6293 1.10227 57.7884 1.48864C58.955 1.875 59.9853 2.42045 60.8793 3.125C61.7808 3.82955 62.5118 4.66667 63.0724 5.63636C63.633 6.60606 63.9815 7.67045 64.1179 8.82955H58.4247ZM89.6491 12.8636C89.6491 15.4242 89.1567 17.5947 88.1719 19.375C87.187 21.1553 85.8537 22.5076 84.1719 23.4318C82.4976 24.3561 80.6188 24.8182 78.5355 24.8182C76.4446 24.8182 74.562 24.3523 72.8878 23.4205C71.2135 22.4886 69.884 21.1364 68.8991 19.3636C67.9219 17.5833 67.4332 15.4167 67.4332 12.8636C67.4332 10.303 67.9219 8.13258 68.8991 6.35227C69.884 4.57197 71.2135 3.2197 72.8878 2.29545C74.562 1.37121 76.4446 0.90909 78.5355 0.90909C80.6188 0.90909 82.4976 1.37121 84.1719 2.29545C85.8537 3.2197 87.187 4.57197 88.1719 6.35227C89.1567 8.13258 89.6491 10.303 89.6491 12.8636ZM83.8991 12.8636C83.8991 11.3485 83.6832 10.0682 83.2514 9.02273C82.8272 7.97727 82.2135 7.1856 81.4105 6.64773C80.6151 6.10985 79.6567 5.84091 78.5355 5.84091C77.4219 5.84091 76.4635 6.10985 75.6605 6.64773C74.8575 7.1856 74.2401 7.97727 73.8082 9.02273C73.384 10.0682 73.1719 11.3485 73.1719 12.8636C73.1719 14.3788 73.384 15.6591 73.8082 16.7045C74.2401 17.75 74.8575 18.5417 75.6605 19.0795C76.4635 19.6174 77.4219 19.8864 78.5355 19.8864C79.6567 19.8864 80.6151 19.6174 81.4105 19.0795C82.2135 18.5417 82.8272 17.75 83.2514 16.7045C83.6832 15.6591 83.8991 14.3788 83.8991 12.8636Z" fill="white"/>
</svg>
