<svg width="458" height="97" viewBox="0 0 458 97" fill="none" xmlns="http://www.w3.org/2000/svg">
<path d="M154.937 66.7255L154.361 54.7575L175.801 32.1655H187.321L167.993 52.9655L162.233 59.1095L154.937 66.7255ZM145.657 76.9655V32.1655H155.961V76.9655H145.657ZM176.313 76.9655L160.377 57.4455L167.161 50.0855L188.409 76.9655H176.313ZM213.039 77.7335C209.498 77.7335 206.234 77.1788 203.247 76.0695C200.303 74.9175 197.722 73.2962 195.503 71.2055C193.327 69.1148 191.62 66.6615 190.383 63.8455C189.188 61.0295 188.591 57.9362 188.591 54.5655C188.591 51.1948 189.188 48.1015 190.383 45.2855C191.62 42.4695 193.348 40.0162 195.567 37.9255C197.786 35.8348 200.388 34.2348 203.375 33.1255C206.362 31.9735 209.647 31.3975 213.231 31.3975C217.199 31.3975 220.762 32.0588 223.919 33.3815C227.119 34.7042 229.807 36.6242 231.983 39.1415L225.327 45.2855C223.706 43.5788 221.935 42.3202 220.015 41.5095C218.095 40.6562 216.004 40.2295 213.743 40.2295C211.567 40.2295 209.583 40.5708 207.791 41.2535C205.999 41.9362 204.442 42.9175 203.119 44.1975C201.839 45.4775 200.836 46.9922 200.111 48.7415C199.428 50.4908 199.087 52.4322 199.087 54.5655C199.087 56.6562 199.428 58.5762 200.111 60.3255C200.836 62.0748 201.839 63.6108 203.119 64.9335C204.442 66.2135 205.978 67.1948 207.727 67.8775C209.519 68.5602 211.482 68.9015 213.615 68.9015C215.663 68.9015 217.647 68.5815 219.567 67.9415C221.53 67.2588 223.428 66.1282 225.263 64.5495L231.151 72.0375C228.719 73.8722 225.882 75.2802 222.639 76.2615C219.439 77.2428 216.239 77.7335 213.039 77.7335ZM221.679 70.6935V53.8615H231.151V72.0375L221.679 70.6935ZM240.782 76.9655V32.1655H262.67C268.302 32.1655 272.526 33.2322 275.342 35.3655C278.201 37.4988 279.63 40.3148 279.63 43.8135C279.63 46.1602 279.054 48.2082 277.902 49.9575C276.75 51.6642 275.171 52.9868 273.166 53.9255C271.161 54.8642 268.857 55.3335 266.254 55.3335L267.47 52.7095C270.286 52.7095 272.782 53.1788 274.958 54.1175C277.134 55.0135 278.819 56.3575 280.014 58.1495C281.251 59.9415 281.87 62.1388 281.87 64.7415C281.87 68.5815 280.355 71.5895 277.326 73.7655C274.297 75.8988 269.838 76.9655 263.95 76.9655H240.782ZM251.086 69.1575H263.182C265.87 69.1575 267.897 68.7308 269.262 67.8775C270.67 66.9815 271.374 65.5735 271.374 63.6535C271.374 61.7762 270.67 60.3895 269.262 59.4935C267.897 58.5548 265.87 58.0855 263.182 58.0855H250.318V50.5335H261.39C263.907 50.5335 265.827 50.1068 267.15 49.2535C268.515 48.3575 269.198 47.0135 269.198 45.2215C269.198 43.4722 268.515 42.1708 267.15 41.3175C265.827 40.4215 263.907 39.9735 261.39 39.9735H251.086V69.1575ZM293.367 89.8935C291.575 89.8935 289.805 89.6162 288.055 89.0615C286.306 88.5068 284.877 87.7388 283.767 86.7575L287.415 79.6535C288.183 80.3362 289.058 80.8695 290.039 81.2535C291.063 81.6375 292.066 81.8295 293.047 81.8295C294.455 81.8295 295.565 81.4882 296.375 80.8055C297.229 80.1655 297.997 79.0775 298.679 77.5415L300.471 73.3175L301.239 72.2295L313.591 42.5335H323.191L307.639 79.0775C306.53 81.8508 305.25 84.0268 303.799 85.6055C302.391 87.1842 300.813 88.2935 299.063 88.9335C297.357 89.5735 295.458 89.8935 293.367 89.8935ZM299.255 78.3095L283.895 42.5335H294.199L306.103 71.3335L299.255 78.3095ZM342.283 77.4775C338.23 77.4775 335.072 76.4535 332.811 74.4055C330.55 72.3148 329.419 69.2215 329.419 65.1255V34.9175H339.403V64.9975C339.403 66.4482 339.787 67.5788 340.555 68.3895C341.323 69.1575 342.368 69.5415 343.691 69.5415C345.27 69.5415 346.614 69.1148 347.723 68.2615L350.411 75.3015C349.387 76.0268 348.15 76.5815 346.699 76.9655C345.291 77.3068 343.819 77.4775 342.283 77.4775ZM324.107 50.9815V43.3015H347.979V50.9815H324.107ZM372.041 77.4775C368.116 77.4775 364.66 76.7095 361.673 75.1735C358.729 73.6375 356.446 71.5468 354.825 68.9015C353.204 66.2135 352.393 63.1628 352.393 59.7495C352.393 56.2935 353.182 53.2428 354.761 50.5975C356.382 47.9095 358.58 45.8188 361.353 44.3255C364.126 42.7895 367.262 42.0215 370.761 42.0215C374.132 42.0215 377.161 42.7468 379.849 44.1975C382.58 45.6055 384.734 47.6535 386.313 50.3415C387.892 52.9868 388.681 56.1655 388.681 59.8775C388.681 60.2615 388.66 60.7095 388.617 61.2215C388.574 61.6908 388.532 62.1388 388.489 62.5655H360.521V56.7415H383.241L379.401 58.4695C379.401 56.6775 379.038 55.1202 378.313 53.7975C377.588 52.4748 376.585 51.4508 375.305 50.7255C374.025 49.9575 372.532 49.5735 370.825 49.5735C369.118 49.5735 367.604 49.9575 366.281 50.7255C365.001 51.4508 363.998 52.4962 363.273 53.8615C362.548 55.1842 362.185 56.7628 362.185 58.5975V60.1335C362.185 62.0108 362.59 63.6748 363.401 65.1255C364.254 66.5335 365.428 67.6215 366.921 68.3895C368.457 69.1148 370.249 69.4775 372.297 69.4775C374.132 69.4775 375.732 69.2002 377.097 68.6455C378.505 68.0908 379.785 67.2588 380.937 66.1495L386.249 71.9095C384.67 73.7015 382.686 75.0882 380.297 76.0695C377.908 77.0082 375.156 77.4775 372.041 77.4775ZM406.912 77.4775C403.968 77.4775 401.131 77.1362 398.4 76.4535C395.712 75.7282 393.579 74.8322 392 73.7655L395.328 66.5975C396.907 67.5788 398.763 68.3895 400.896 69.0295C403.072 69.6268 405.205 69.9255 407.296 69.9255C409.6 69.9255 411.221 69.6482 412.16 69.0935C413.141 68.5388 413.632 67.7708 413.632 66.7895C413.632 65.9788 413.248 65.3815 412.48 64.9975C411.755 64.5708 410.773 64.2508 409.536 64.0375C408.299 63.8242 406.933 63.6108 405.44 63.3975C403.989 63.1842 402.517 62.9068 401.024 62.5655C399.531 62.1815 398.165 61.6268 396.928 60.9015C395.691 60.1762 394.688 59.1948 393.92 57.9575C393.195 56.7202 392.832 55.1202 392.832 53.1575C392.832 50.9815 393.451 49.0615 394.688 47.3975C395.968 45.7335 397.803 44.4322 400.192 43.4935C402.581 42.5122 405.44 42.0215 408.768 42.0215C411.115 42.0215 413.504 42.2775 415.936 42.7895C418.368 43.3015 420.395 44.0482 422.016 45.0295L418.688 52.1335C417.024 51.1522 415.339 50.4908 413.632 50.1495C411.968 49.7655 410.347 49.5735 408.768 49.5735C406.549 49.5735 404.928 49.8722 403.904 50.4695C402.88 51.0668 402.368 51.8348 402.368 52.7735C402.368 53.6268 402.731 54.2668 403.456 54.6935C404.224 55.1202 405.227 55.4615 406.464 55.7175C407.701 55.9735 409.045 56.2082 410.496 56.4215C411.989 56.5922 413.483 56.8695 414.976 57.2535C416.469 57.6375 417.813 58.1922 419.008 58.9175C420.245 59.6002 421.248 60.5602 422.016 61.7975C422.784 62.9922 423.168 64.5708 423.168 66.5335C423.168 68.6668 422.528 70.5655 421.248 72.2295C419.968 73.8508 418.112 75.1308 415.68 76.0695C413.291 77.0082 410.368 77.4775 406.912 77.4775Z" fill="white"/>
<g clip-path="url(#clip0_577_197)">
<path fill-rule="evenodd" clip-rule="evenodd" d="M68.3572 8.43241L87.5677 27.6428C98.8107 38.8858 98.8107 57.1144 87.5677 68.3574L68.3573 87.5678C57.1142 98.8109 38.8857 98.8109 27.6426 87.5678L8.43221 68.3574C-2.81082 57.1144 -2.81082 38.8858 8.43221 27.6428L27.6426 8.43241C38.8857 -2.81062 57.1142 -2.81062 68.3572 8.43241ZM22.8016 34.8157C20.5858 38.9611 19.4265 43.5891 19.4266 48.2896C19.42 52.0434 20.1551 55.7615 21.5897 59.2304C23.0242 62.6993 25.13 65.8506 27.786 68.5033H48H68.2141C71.5385 65.1802 73.992 61.0885 75.3572 56.5907C76.7224 52.0928 76.9572 47.3277 76.0409 42.7174C75.1245 38.1071 73.0853 33.794 70.1037 30.1601C67.1222 26.5263 63.2905 23.6838 58.948 21.8846C54.6055 20.0854 49.8863 19.385 45.2084 19.8454C40.5305 20.3058 36.0384 21.9129 32.13 24.5242C28.2215 27.1354 25.0175 30.6703 22.8016 34.8157ZM58.7523 65.3493L48 68.5033L37.2478 65.3493L34.094 62.1953C31.3437 59.445 29.4706 55.9408 28.7118 52.126C27.953 48.3111 28.3425 44.357 29.831 40.7635C31.3195 37.17 33.8401 34.0985 37.0742 31.9376C40.3082 29.7767 44.1105 28.6233 48 28.6233C51.8896 28.6233 55.6918 29.7767 58.9259 31.9376C62.1599 34.0985 64.6806 37.17 66.1691 40.7635C67.6576 44.357 68.047 48.3111 67.2882 52.126C66.5294 55.9408 64.6564 59.445 61.9061 62.1953L58.7523 65.3493ZM48 57.728C42.6275 57.728 38.2722 53.3727 38.2722 48.0001C38.2722 42.6276 42.6275 38.2723 48 38.2723C53.3726 38.2723 57.7279 42.6276 57.7279 48.0001C57.7279 53.3727 53.3726 57.728 48 57.728Z" fill="white"/>
</g>
<defs>
<clipPath id="clip0_577_197">
<rect width="96.2627" height="96.2627" fill="white"/>
</clipPath>
</defs>
</svg>
