<svg width="65" height="66" viewBox="0 0 65 66" fill="none" xmlns="http://www.w3.org/2000/svg">
<g clip-path="url(#clip0_578_176)">
<path fill-rule="evenodd" clip-rule="evenodd" d="M46.1572 6.1938L59.1287 19.1653C66.7204 26.757 66.7204 39.0656 59.1287 46.6573L46.1572 59.6288C38.5655 67.2205 26.2569 67.2205 18.6652 59.6288L5.69368 46.6573C-1.89802 39.0656 -1.89802 26.757 5.69368 19.1653L18.6652 6.1938C26.2569 -1.39789 38.5655 -1.39789 46.1572 6.1938ZM15.3964 24.0088C13.9002 26.8079 13.1174 29.9328 13.1175 33.1068C13.113 35.6415 13.6094 38.1521 14.5781 40.4944C15.5467 42.8367 16.9686 44.9646 18.762 46.7558L32.4113 46.7558H46.0605C48.3053 44.5119 49.9619 41.7491 50.8838 38.712C51.8057 35.6749 51.9642 32.4573 51.3454 29.3442C50.7267 26.2312 49.3497 23.3189 47.3365 20.8651C45.3232 18.4114 42.7359 16.4921 39.8037 15.2772C36.8715 14.0623 33.6849 13.5894 30.5263 13.9003C27.3676 14.2112 24.3343 15.2963 21.6952 17.0595C19.0561 18.8227 16.8926 21.2096 15.3964 24.0088ZM39.6716 44.6261L32.4113 46.7558L25.151 44.6261L23.0214 42.4964C21.1643 40.6393 19.8996 38.2731 19.3872 35.6972C18.8748 33.1213 19.1378 30.4514 20.1429 28.0249C21.148 25.5984 22.85 23.5245 25.0337 22.0653C27.2175 20.6062 29.7849 19.8274 32.4113 19.8274C35.0377 19.8274 37.605 20.6062 39.7888 22.0653C41.9725 23.5245 43.6746 25.5984 44.6797 28.0249C45.6847 30.4514 45.9477 33.1213 45.4353 35.6972C44.9229 38.2731 43.6583 40.6393 41.8011 42.4964L39.6716 44.6261ZM32.4113 39.4799C28.7835 39.4799 25.8427 36.539 25.8427 32.9113C25.8427 29.2836 28.7835 26.3427 32.4113 26.3427C36.039 26.3427 38.9799 29.2836 38.9799 32.9113C38.9799 36.539 36.039 39.4799 32.4113 39.4799Z" fill="white"/>
</g>
<defs>
<clipPath id="clip0_578_176">
<rect width="65" height="65" fill="white" transform="translate(0 0.5)"/>
</clipPath>
</defs>
</svg>
